<svg width="200" height="200" viewBox="0 0 200 200" fill="none" xmlns="http://www.w3.org/2000/svg">
<path fill-rule="evenodd" clip-rule="evenodd" d="M117.929 100C135.929 115 139.929 140 131.929 162C125.929 172 117.929 176 117.929 176C117.929 176 109.929 172 103.929 162C95.9289 140 99.9289 115 117.929 100Z" fill="#C69320" fill-opacity="0.7" stroke="#C69320" stroke-width="0.5"/>
<path fill-rule="evenodd" clip-rule="evenodd" d="M112.678 112.678C114.799 136.012 99.9497 156.518 78.7365 166.418C67.4228 169.246 58.9375 166.418 58.9375 166.418C58.9375 166.418 56.1091 157.932 58.9375 146.619C68.837 125.406 89.3431 110.556 112.678 112.678Z" fill="#C69320" fill-opacity="0.7" stroke="#C69320" stroke-width="0.5"/>
<path fill-rule="evenodd" clip-rule="evenodd" d="M100 117.929C85 135.929 60 139.929 38 131.929C28 125.929 24 117.929 24 117.929C24 117.929 28 109.929 38 103.929C60 95.9289 85 99.9289 100 117.929Z" fill="#C69320" fill-opacity="0.7" stroke="#C69320" stroke-width="0.5"/>
<path fill-rule="evenodd" clip-rule="evenodd" d="M87.3224 112.678C63.9879 114.799 43.4818 99.9497 33.5823 78.7365C30.7538 67.4228 33.5823 58.9375 33.5823 58.9375C33.5823 58.9375 42.0675 56.1091 53.3813 58.9375C74.5945 68.837 89.4437 89.3431 87.3224 112.678Z" fill="#C69320" fill-opacity="0.7" stroke="#C69320" stroke-width="0.5"/>
<path fill-rule="evenodd" clip-rule="evenodd" d="M82.0711 100C64.0711 85 60.0711 60 68.0711 38C74.0711 28 82.0711 24 82.0711 24C82.0711 24 90.0711 28 96.0711 38C104.071 60 100.071 85 82.0711 100Z" fill="#C69320" fill-opacity="0.7" stroke="#C69320" stroke-width="0.5"/>
<path fill-rule="evenodd" clip-rule="evenodd" d="M87.3224 87.3224C85.2011 63.9879 100.05 43.4818 121.264 33.5823C132.577 30.7538 141.063 33.5823 141.063 33.5823C141.063 33.5823 143.891 42.0675 141.063 53.3813C131.163 74.5945 110.657 89.4437 87.3224 87.3224Z" fill="#C69320" fill-opacity="0.7" stroke="#C69320" stroke-width="0.5"/>
<path fill-rule="evenodd" clip-rule="evenodd" d="M100 82.0711C115 64.0711 140 60.0711 162 68.0711C172 74.0711 176 82.0711 176 82.0711C176 82.0711 172 90.0711 162 96.0711C140 104.071 115 100.071 100 82.0711Z" fill="#C69320" fill-opacity="0.7" stroke="#C69320" stroke-width="0.5"/>
<path fill-rule="evenodd" clip-rule="evenodd" d="M112.678 87.3224C136.012 85.2011 156.518 100.05 166.418 121.264C169.246 132.577 166.418 141.063 166.418 141.063C166.418 141.063 157.932 143.891 146.619 141.063C125.406 131.163 110.556 110.657 112.678 87.3224Z" fill="#C69320" fill-opacity="0.7" stroke="#C69320" stroke-width="0.5"/>
<path fill-rule="evenodd" clip-rule="evenodd" d="M111.377 104.712C118.636 118.543 115.285 134.474 104.543 147.342C97.7858 153.202 91.0945 153.678 91.0945 153.678C91.0945 153.678 86.6993 148.61 86.0652 139.689C87.5688 122.993 96.4633 109.359 111.377 104.712Z" fill="#3B6FA0" fill-opacity="0.6" stroke="#3B6FA0" stroke-width="0.4"/>
<path fill-rule="evenodd" clip-rule="evenodd" d="M104.712 111.377C100.066 126.29 86.4318 135.185 69.7363 136.688C60.8145 136.054 55.7468 131.659 55.7468 131.659C55.7468 131.659 56.2223 124.968 62.0826 118.211C74.9513 107.468 90.8814 104.117 104.712 111.377Z" fill="#3B6FA0" fill-opacity="0.6" stroke="#3B6FA0" stroke-width="0.4"/>
<path fill-rule="evenodd" clip-rule="evenodd" d="M95.2876 111.377C81.4566 118.636 65.5265 115.285 52.6578 104.543C46.7975 97.7858 46.322 91.0945 46.322 91.0945C46.322 91.0945 51.3897 86.6993 60.3115 86.0652C77.007 87.5688 90.641 96.4633 95.2876 111.377Z" fill="#3B6FA0" fill-opacity="0.6" stroke="#3B6FA0" stroke-width="0.4"/>
<path fill-rule="evenodd" clip-rule="evenodd" d="M88.6233 104.712C73.7099 100.066 64.8153 86.4318 63.3118 69.7363C63.9458 60.8145 68.341 55.7468 68.341 55.7468C68.341 55.7468 75.0324 56.2223 81.7894 62.0826C92.5317 74.9513 95.883 90.8814 88.6233 104.712Z" fill="#3B6FA0" fill-opacity="0.6" stroke="#3B6FA0" stroke-width="0.4"/>
<path fill-rule="evenodd" clip-rule="evenodd" d="M88.6233 95.2876C81.3635 81.4566 84.7148 65.5265 95.4572 52.6578C102.214 46.7975 108.905 46.322 108.905 46.322C108.905 46.322 113.301 51.3897 113.935 60.3115C112.431 77.007 103.537 90.641 88.6233 95.2876Z" fill="#3B6FA0" fill-opacity="0.6" stroke="#3B6FA0" stroke-width="0.4"/>
<path fill-rule="evenodd" clip-rule="evenodd" d="M95.2876 88.6233C99.9342 73.7099 113.568 64.8153 130.264 63.3118C139.185 63.9458 144.253 68.341 144.253 68.341C144.253 68.341 143.778 75.0324 137.917 81.7894C125.049 92.5317 109.119 95.883 95.2876 88.6233Z" fill="#3B6FA0" fill-opacity="0.6" stroke="#3B6FA0" stroke-width="0.4"/>
<path fill-rule="evenodd" clip-rule="evenodd" d="M104.712 88.6233C118.543 81.3635 134.474 84.7148 147.342 95.4572C153.202 102.214 153.678 108.905 153.678 108.905C153.678 108.905 148.61 113.301 139.689 113.935C122.993 112.431 109.359 103.537 104.712 88.6233Z" fill="#3B6FA0" fill-opacity="0.6" stroke="#3B6FA0" stroke-width="0.4"/>
<path fill-rule="evenodd" clip-rule="evenodd" d="M111.377 95.2876C126.29 99.9342 135.185 113.568 136.688 130.264C136.054 139.185 131.659 144.253 131.659 144.253C131.659 144.253 124.968 143.778 118.211 137.917C107.468 125.049 104.117 109.119 111.377 95.2876Z" fill="#3B6FA0" fill-opacity="0.6" stroke="#3B6FA0" stroke-width="0.4"/>
<circle cx="100" cy="100" r="11.5" fill="#7A1F3D" fill-opacity="0.8" stroke="#C69320"/>
<circle cx="100" cy="100" r="5" fill="#C69320"/>
</svg>
