<svg width="502" height="160" viewBox="0 0 502 160" fill="none" xmlns="http://www.w3.org/2000/svg">
<path d="M0.976089 80C40.9761 30 80.9761 30 120.976 80C160.976 130 200.976 130 240.976 80C280.976 30 320.976 30 360.976 80C400.976 130 440.976 130 500.976 80" stroke="#7B8B6F" stroke-width="2.5"/>
<path d="M0.976089 80C40.9761 110 80.9761 110 120.976 80C160.976 50 200.976 50 240.976 80C280.976 110 320.976 110 360.976 80C400.976 50 440.976 50 500.976 80" stroke="#7B8B6F" stroke-opacity="0.5" stroke-width="1.2"/>
<path fill-rule="evenodd" clip-rule="evenodd" d="M66.8218 48.375C69.0179 56.5712 66.75 64.4994 61.0179 70.4276C57.2859 72.8917 54.5538 73.6237 51.8218 74.3558C51.0897 71.6237 50.3577 68.8917 50.6256 64.4276C52.8936 56.4994 58.6256 50.5712 66.8218 48.375Z" fill="#7B8B6F" fill-opacity="0.7" stroke="#7B8B6F" stroke-width="0.3"/>
<path fill-rule="evenodd" clip-rule="evenodd" d="M107.319 32.6914C115.009 36.2774 119.625 43.1109 120.482 51.3125C119.97 55.7553 118.775 58.3187 117.58 60.8821C115.016 59.6868 112.453 58.4915 109.205 55.4167C104.59 48.5832 103.733 40.3816 107.319 32.6914Z" fill="#C69320" fill-opacity="0.7" stroke="#C69320" stroke-width="0.3"/>
<path fill-rule="evenodd" clip-rule="evenodd" d="M186.822 111.625C195.018 113.821 200.75 119.749 203.018 127.678C203.286 132.142 202.554 134.874 201.822 137.606C199.09 136.874 196.358 136.142 192.626 133.678C186.894 127.749 184.626 119.821 186.822 111.625Z" fill="#7B8B6F" fill-opacity="0.7" stroke="#7B8B6F" stroke-width="0.3"/>
<path fill-rule="evenodd" clip-rule="evenodd" d="M227.319 127.309C230.905 134.999 230.048 143.2 225.433 150.034C222.185 153.109 219.622 154.304 217.058 155.499C215.863 152.936 214.668 150.373 214.156 145.93C215.013 137.728 219.629 130.895 227.319 127.309Z" fill="#C69320" fill-opacity="0.7" stroke="#C69320" stroke-width="0.3"/>
<path fill-rule="evenodd" clip-rule="evenodd" d="M306.822 48.375C309.018 56.5712 306.75 64.4994 301.018 70.4276C297.286 72.8917 294.554 73.6237 291.822 74.3558C291.09 71.6237 290.358 68.8917 290.626 64.4276C292.894 56.4994 298.626 50.5712 306.822 48.375Z" fill="#7B8B6F" fill-opacity="0.7" stroke="#7B8B6F" stroke-width="0.3"/>
<path fill-rule="evenodd" clip-rule="evenodd" d="M347.319 32.6914C355.009 36.2774 359.625 43.1109 360.482 51.3125C359.97 55.7553 358.775 58.3187 357.58 60.8821C355.016 59.6868 352.453 58.4915 349.205 55.4167C344.59 48.5832 343.733 40.3816 347.319 32.6914Z" fill="#A0522D" fill-opacity="0.7" stroke="#A0522D" stroke-width="0.3"/>
<path fill-rule="evenodd" clip-rule="evenodd" d="M426.822 111.625C435.018 113.821 440.75 119.749 443.018 127.678C443.286 132.142 442.554 134.874 441.822 137.606C439.09 136.874 436.358 136.142 432.626 133.678C426.894 127.749 424.626 119.821 426.822 111.625Z" fill="#7B8B6F" fill-opacity="0.7" stroke="#7B8B6F" stroke-width="0.3"/>
<path fill-rule="evenodd" clip-rule="evenodd" d="M467.319 127.309C470.905 134.999 470.048 143.2 465.433 150.034C462.185 153.109 459.622 154.304 457.058 155.499C455.863 152.936 454.668 150.373 454.156 145.93C455.013 137.728 459.629 130.895 467.319 127.309Z" fill="#C69320" fill-opacity="0.7" stroke="#C69320" stroke-width="0.3"/>
<path fill-rule="evenodd" clip-rule="evenodd" d="M35.3368 78.2574C27.3368 68.2574 31.3368 58.2574 39.3368 60.2574C45.3368 62.2574 43.3368 70.2574 35.3368 78.2574Z" stroke="#7B8B6F" stroke-opacity="0.6"/>
<path fill-rule="evenodd" clip-rule="evenodd" d="M158.465 100C166.465 110 162.465 120 154.465 118C148.465 116 150.465 108 158.465 100Z" stroke="#7B8B6F" stroke-opacity="0.6"/>
<path fill-rule="evenodd" clip-rule="evenodd" d="M275.337 78.2574C267.337 68.2574 271.337 58.2574 279.337 60.2574C285.337 62.2574 283.337 70.2574 275.337 78.2574Z" stroke="#7B8B6F" stroke-opacity="0.6"/>
<path fill-rule="evenodd" clip-rule="evenodd" d="M398.465 100C406.465 110 402.465 120 394.465 118C388.465 116 390.465 108 398.465 100Z" stroke="#7B8B6F" stroke-opacity="0.6"/>
<circle cx="120.976" cy="72" r="3.75" fill="#A0522D" fill-opacity="0.8" stroke="#C69320" stroke-width="0.5"/>
<circle cx="240.976" cy="72" r="3.75" fill="#A0522D" fill-opacity="0.8" stroke="#C69320" stroke-width="0.5"/>
<circle cx="360.976" cy="72" r="3.75" fill="#A0522D" fill-opacity="0.8" stroke="#C69320" stroke-width="0.5"/>
</svg>
