<svg width="32" height="32" viewBox="0 0 32 32" fill="none" xmlns="http://www.w3.org/2000/svg">
<rect width="32" height="32" rx="6" fill="#0D1526"/>
<path fill-rule="evenodd" clip-rule="evenodd" d="M18.5981 16C21.5981 19 21.5981 23 20.5981 26C19.5981 27.5 18.5981 28 18.5981 28C18.5981 28 17.5981 27.5 16.5981 26C15.5981 23 15.5981 19 18.5981 16Z" fill="#C69320" fill-opacity="0.7"/>
<path fill-rule="evenodd" clip-rule="evenodd" d="M17.8371 17.8371C17.8371 22.0798 15.0087 24.9082 12.1803 26.3224C10.4125 26.676 9.35184 26.3224 9.35184 26.3224C9.35184 26.3224 8.99828 25.2617 9.35184 23.494C10.766 20.6655 13.5945 17.8371 17.8371 17.8371Z" fill="#C69320" fill-opacity="0.7"/>
<path fill-rule="evenodd" clip-rule="evenodd" d="M16 18.5981C13 21.5981 9 21.5981 6 20.5981C4.5 19.5981 4 18.5981 4 18.5981C4 18.5981 4.5 17.5981 6 16.5981C9 15.5981 13 15.5981 16 18.5981Z" fill="#C69320" fill-opacity="0.7"/>
<path fill-rule="evenodd" clip-rule="evenodd" d="M14.1629 17.8371C9.92024 17.8371 7.09181 15.0087 5.6776 12.1803C5.32405 10.4125 5.6776 9.35184 5.6776 9.35184C5.6776 9.35184 6.73826 8.99828 8.50603 9.35184C11.3345 10.766 14.1629 13.5945 14.1629 17.8371Z" fill="#C69320" fill-opacity="0.7"/>
<path fill-rule="evenodd" clip-rule="evenodd" d="M13.4019 16C10.4019 13 10.4019 9 11.4019 6C12.4019 4.5 13.4019 4 13.4019 4C13.4019 4 14.4019 4.5 15.4019 6C16.4019 9 16.4019 13 13.4019 16Z" fill="#C69320" fill-opacity="0.7"/>
<path fill-rule="evenodd" clip-rule="evenodd" d="M14.1629 14.1629C14.1629 9.92024 16.9913 7.09181 19.8197 5.6776C21.5875 5.32405 22.6482 5.6776 22.6482 5.6776C22.6482 5.6776 23.0017 6.73826 22.6482 8.50603C21.234 11.3345 18.4055 14.1629 14.1629 14.1629Z" fill="#C69320" fill-opacity="0.7"/>
<path fill-rule="evenodd" clip-rule="evenodd" d="M16 13.4019C19 10.4019 23 10.4019 26 11.4019C27.5 12.4019 28 13.4019 28 13.4019C28 13.4019 27.5 14.4019 26 15.4019C23 16.4019 19 16.4019 16 13.4019Z" fill="#C69320" fill-opacity="0.7"/>
<path fill-rule="evenodd" clip-rule="evenodd" d="M17.8371 14.1629C22.0798 14.1629 24.9082 16.9913 26.3224 19.8197C26.676 21.5875 26.3224 22.6482 26.3224 22.6482C26.3224 22.6482 25.2617 23.0017 23.494 22.6482C20.6655 21.234 17.8371 18.4055 17.8371 14.1629Z" fill="#C69320" fill-opacity="0.7"/>
<path fill-rule="evenodd" clip-rule="evenodd" d="M17.5307 16.6341C18.6131 19.2472 17.4651 22.0188 15.7758 23.4839C15.1225 23.7545 14.6606 23.5631 14.6606 23.5631C14.6606 23.5631 14.1987 23.3718 13.9281 22.7185C13.7696 20.4881 14.9176 17.7164 17.5307 16.6341Z" fill="#3B6FA0" fill-opacity="0.5"/>
<path fill-rule="evenodd" clip-rule="evenodd" d="M16.6341 17.5307C15.5517 20.1439 12.78 21.2919 10.5496 21.1334C9.8963 20.8628 9.70495 20.4009 9.70495 20.4009C9.70495 20.4009 9.51361 19.9389 9.78421 19.2856C11.2493 17.5964 14.0209 16.4483 16.6341 17.5307Z" fill="#3B6FA0" fill-opacity="0.5"/>
<path fill-rule="evenodd" clip-rule="evenodd" d="M15.3659 17.5307C12.7528 18.6131 9.98118 17.4651 8.51611 15.7758C8.24551 15.1225 8.43685 14.6606 8.43685 14.6606C8.43685 14.6606 8.62819 14.1987 9.28148 13.9281C11.5119 13.7696 14.2836 14.9176 15.3659 17.5307Z" fill="#3B6FA0" fill-opacity="0.5"/>
<path fill-rule="evenodd" clip-rule="evenodd" d="M14.4693 16.6341C11.8561 15.5517 10.7081 12.78 10.8666 10.5496C11.1372 9.8963 11.5991 9.70495 11.5991 9.70495C11.5991 9.70495 12.0611 9.51361 12.7144 9.78421C14.4036 11.2493 15.5517 14.0209 14.4693 16.6341Z" fill="#3B6FA0" fill-opacity="0.5"/>
<path fill-rule="evenodd" clip-rule="evenodd" d="M14.4693 15.3659C13.3869 12.7528 14.5349 9.98118 16.2242 8.51611C16.8775 8.24551 17.3394 8.43685 17.3394 8.43685C17.3394 8.43685 17.8013 8.62819 18.0719 9.28148C18.2304 11.5119 17.0824 14.2836 14.4693 15.3659Z" fill="#3B6FA0" fill-opacity="0.5"/>
<path fill-rule="evenodd" clip-rule="evenodd" d="M15.3659 14.4693C16.4483 11.8561 19.22 10.7081 21.4504 10.8666C22.1037 11.1372 22.295 11.5991 22.295 11.5991C22.295 11.5991 22.4864 12.0611 22.2158 12.7144C20.7507 14.4036 17.9791 15.5517 15.3659 14.4693Z" fill="#3B6FA0" fill-opacity="0.5"/>
<path fill-rule="evenodd" clip-rule="evenodd" d="M16.6341 14.4693C19.2472 13.3869 22.0188 14.5349 23.4839 16.2242C23.7545 16.8775 23.5631 17.3394 23.5631 17.3394C23.5631 17.3394 23.3718 17.8013 22.7185 18.0719C20.4881 18.2304 17.7164 17.0824 16.6341 14.4693Z" fill="#3B6FA0" fill-opacity="0.5"/>
<path fill-rule="evenodd" clip-rule="evenodd" d="M17.5307 15.3659C20.1439 16.4483 21.2919 19.22 21.1334 21.4504C20.8628 22.1037 20.4009 22.295 20.4009 22.295C20.4009 22.295 19.9389 22.4864 19.2856 22.2158C17.5964 20.7507 16.4483 17.9791 17.5307 15.3659Z" fill="#3B6FA0" fill-opacity="0.5"/>
<circle cx="16" cy="16" r="1.75" fill="#7A1F3D" fill-opacity="0.8" stroke="#C69320" stroke-width="0.5"/>
<circle cx="16" cy="16" r="0.75" fill="#C69320"/>
</svg>
