<svg width="200" height="200" viewBox="0 0 200 200" fill="none" xmlns="http://www.w3.org/2000/svg">
<path fill-rule="evenodd" clip-rule="evenodd" d="M111.872 100C123.872 114 125.872 136 121.872 155C116.872 163 111.872 165 111.872 165C111.872 165 106.872 163 101.872 155C97.8722 136 99.8722 114 111.872 100Z" fill="#C69320" fill-opacity="0.6" stroke="#C69320" stroke-opacity="0.8" stroke-width="0.5"/>
<path fill-rule="evenodd" clip-rule="evenodd" d="M108.395 108.395C106.981 126.78 92.8385 143.75 76.5751 154.357C67.3827 156.478 62.4329 154.357 62.4329 154.357C62.4329 154.357 60.3116 149.407 62.4329 140.215C73.0395 123.951 90.0101 109.809 108.395 108.395Z" fill="#C69320" fill-opacity="0.6" stroke="#C69320" stroke-opacity="0.8" stroke-width="0.5"/>
<path fill-rule="evenodd" clip-rule="evenodd" d="M100 111.872C86 123.872 64 125.872 45 121.872C37 116.872 35 111.872 35 111.872C35 111.872 37 106.872 45 101.872C64 97.8722 86 99.8722 100 111.872Z" fill="#C69320" fill-opacity="0.6" stroke="#C69320" stroke-opacity="0.8" stroke-width="0.5"/>
<path fill-rule="evenodd" clip-rule="evenodd" d="M91.6051 108.395C73.2203 106.981 56.2498 92.8385 45.6432 76.5751C43.5218 67.3827 45.6432 62.4329 45.6432 62.4329C45.6432 62.4329 50.5929 60.3116 59.7853 62.4329C76.0488 73.0395 90.1909 90.0101 91.6051 108.395Z" fill="#C69320" fill-opacity="0.6" stroke="#C69320" stroke-opacity="0.8" stroke-width="0.5"/>
<path fill-rule="evenodd" clip-rule="evenodd" d="M88.1278 100C76.1278 86 74.1278 64 78.1278 45C83.1278 37 88.1278 35 88.1278 35C88.1278 35 93.1278 37 98.1278 45C102.128 64 100.128 86 88.1278 100Z" fill="#C69320" fill-opacity="0.6" stroke="#C69320" stroke-opacity="0.8" stroke-width="0.5"/>
<path fill-rule="evenodd" clip-rule="evenodd" d="M91.6051 91.6051C93.0193 73.2203 107.161 56.2498 123.425 45.6432C132.617 43.5218 137.567 45.6432 137.567 45.6432C137.567 45.6432 139.688 50.5929 137.567 59.7853C126.96 76.0488 109.99 90.1909 91.6051 91.6051Z" fill="#C69320" fill-opacity="0.6" stroke="#C69320" stroke-opacity="0.8" stroke-width="0.5"/>
<path fill-rule="evenodd" clip-rule="evenodd" d="M100 88.1278C114 76.1278 136 74.1278 155 78.1278C163 83.1278 165 88.1278 165 88.1278C165 88.1278 163 93.1278 155 98.1278C136 102.128 114 100.128 100 88.1278Z" fill="#C69320" fill-opacity="0.6" stroke="#C69320" stroke-opacity="0.8" stroke-width="0.5"/>
<path fill-rule="evenodd" clip-rule="evenodd" d="M108.395 91.6051C126.78 93.0193 143.75 107.161 154.357 123.425C156.478 132.617 154.357 137.567 154.357 137.567C154.357 137.567 149.407 139.688 140.215 137.567C123.951 126.96 109.809 109.99 108.395 91.6051Z" fill="#C69320" fill-opacity="0.6" stroke="#C69320" stroke-opacity="0.8" stroke-width="0.5"/>
<path fill-rule="evenodd" clip-rule="evenodd" d="M106.384 102.644C109.024 114.562 104.591 127.879 97.7679 139.124C93.4656 141.671 89.9286 142.371 89.9286 142.371C89.9286 142.371 87.9223 139.375 86.6814 134.532C89.8085 121.756 96.09 109.204 106.384 102.644Z" fill="#3B6FA0" fill-opacity="0.5" stroke="#3B6FA0" stroke-opacity="0.6" stroke-width="0.3"/>
<path fill-rule="evenodd" clip-rule="evenodd" d="M102.644 106.384C96.0843 116.678 83.5327 122.959 70.7569 126.087C65.9133 124.846 62.9175 122.839 62.9175 122.839C62.9175 122.839 63.6172 119.302 66.1647 115C77.4097 108.177 90.7267 103.744 102.644 106.384Z" fill="#3B6FA0" fill-opacity="0.5" stroke="#3B6FA0" stroke-opacity="0.6" stroke-width="0.3"/>
<path fill-rule="evenodd" clip-rule="evenodd" d="M97.3557 106.384C85.4381 109.024 72.1211 104.591 60.876 97.7679C58.3286 93.4656 57.6289 89.9286 57.6289 89.9286C57.6289 89.9286 60.6247 87.9223 65.4682 86.6814C78.244 89.8085 90.7957 96.09 97.3557 106.384Z" fill="#3B6FA0" fill-opacity="0.5" stroke="#3B6FA0" stroke-opacity="0.6" stroke-width="0.3"/>
<path fill-rule="evenodd" clip-rule="evenodd" d="M93.616 102.644C83.3221 96.0843 77.0406 83.5327 73.9135 70.7569C75.1544 65.9133 77.1607 62.9175 77.1607 62.9175C77.1607 62.9175 80.6977 63.6172 85 66.1647C91.8227 77.4097 96.2564 90.7267 93.616 102.644Z" fill="#3B6FA0" fill-opacity="0.5" stroke="#3B6FA0" stroke-opacity="0.6" stroke-width="0.3"/>
<path fill-rule="evenodd" clip-rule="evenodd" d="M93.616 97.3557C90.9757 85.4381 95.4094 72.1211 102.232 60.876C106.534 58.3286 110.071 57.6289 110.071 57.6289C110.071 57.6289 112.078 60.6247 113.319 65.4682C110.191 78.244 103.91 90.7957 93.616 97.3557Z" fill="#3B6FA0" fill-opacity="0.5" stroke="#3B6FA0" stroke-opacity="0.6" stroke-width="0.3"/>
<path fill-rule="evenodd" clip-rule="evenodd" d="M97.3557 93.616C103.916 83.3221 116.467 77.0406 129.243 73.9135C134.087 75.1544 137.082 77.1607 137.082 77.1607C137.082 77.1607 136.383 80.6977 133.835 85C122.59 91.8227 109.273 96.2564 97.3557 93.616Z" fill="#3B6FA0" fill-opacity="0.5" stroke="#3B6FA0" stroke-opacity="0.6" stroke-width="0.3"/>
<path fill-rule="evenodd" clip-rule="evenodd" d="M102.644 93.616C114.562 90.9757 127.879 95.4094 139.124 102.232C141.671 106.534 142.371 110.071 142.371 110.071C142.371 110.071 139.375 112.078 134.532 113.319C121.756 110.191 109.204 103.91 102.644 93.616Z" fill="#3B6FA0" fill-opacity="0.5" stroke="#3B6FA0" stroke-opacity="0.6" stroke-width="0.3"/>
<path fill-rule="evenodd" clip-rule="evenodd" d="M106.384 97.3557C116.678 103.916 122.959 116.467 126.087 129.243C124.846 134.087 122.839 137.082 122.839 137.082C122.839 137.082 119.302 136.383 115 133.835C108.177 122.59 103.744 109.273 106.384 97.3557Z" fill="#3B6FA0" fill-opacity="0.5" stroke="#3B6FA0" stroke-opacity="0.6" stroke-width="0.3"/>
<circle cx="100" cy="100" r="9" fill="#7A1F3D" fill-opacity="0.7"/>
<circle cx="100" cy="100" r="8.5" stroke="#C69320" stroke-opacity="0.8"/>
<circle cx="100" cy="100" r="3" fill="#C69320"/>
</svg>
